solid OpenSCAD_Model
  facet normal 9.5162e-017 0.866025 -0.5
    outer loop
      vertex 35 0.55 -0.952628
      vertex 1.22125e-016 1.1 -2.22045e-016
      vertex 35 1.1 6.55032e-015
    endloop
  endfacet
  facet normal 0 0.866025 -0.5
    outer loop
      vertex 1.22125e-016 1.1 -2.22045e-016
      vertex 35 0.55 -0.952628
      vertex 2.44249e-016 0.55 -0.952628
    endloop
  endfacet
  facet normal 0 0.866025 0.5
    outer loop
      vertex 35 1.1 6.55032e-015
      vertex -1.22125e-016 0.55 0.952628
      vertex 35 0.55 0.952628
    endloop
  endfacet
  facet normal -9.5162e-017 0.866025 0.5
    outer loop
      vertex -1.22125e-016 0.55 0.952628
      vertex 35 1.1 6.55032e-015
      vertex 1.22125e-016 1.1 -2.22045e-016
    endloop
  endfacet
  facet normal -0 0 1
    outer loop
      vertex -1.22125e-016 0.55 0.952628
      vertex 35 -0.55 0.952628
      vertex 35 0.55 0.952628
    endloop
  endfacet
  facet normal 0 0 1
    outer loop
      vertex 35 -0.55 0.952628
      vertex -1.22125e-016 0.55 0.952628
      vertex -2.44249e-016 -0.55 0.952628
    endloop
  endfacet
  facet normal 0 -0.866025 0.5
    outer loop
      vertex -2.44249e-016 -0.55 0.952628
      vertex 35 -1.1 7.32747e-015
      vertex 35 -0.55 0.952628
    endloop
  endfacet
  facet normal -9.5955e-017 -0.866025 0.5
    outer loop
      vertex 35 -1.1 7.32747e-015
      vertex -2.44249e-016 -0.55 0.952628
      vertex -1.22125e-016 -1.1 6.10623e-016
    endloop
  endfacet
  facet normal 9.5162e-017 -0.866025 -0.5
    outer loop
      vertex 1.22125e-016 -0.55 -0.952628
      vertex 35 -1.1 7.32747e-015
      vertex -1.22125e-016 -1.1 6.10623e-016
    endloop
  endfacet
  facet normal 0 -0.866025 -0.5
    outer loop
      vertex 35 -1.1 7.32747e-015
      vertex 1.22125e-016 -0.55 -0.952628
      vertex 35 -0.55 -0.952628
    endloop
  endfacet
  facet normal 0 0 -1
    outer loop
      vertex 35 -0.55 -0.952628
      vertex 2.44249e-016 0.55 -0.952628
      vertex 35 0.55 -0.952628
    endloop
  endfacet
  facet normal 0 -0 -1
    outer loop
      vertex 2.44249e-016 0.55 -0.952628
      vertex 35 -0.55 -0.952628
      vertex 1.22125e-016 -0.55 -0.952628
    endloop
  endfacet
  facet normal -1 1.11022e-016 -1.92296e-016
    outer loop
      vertex 2.44249e-016 0.55 -0.952628
      vertex -1.22125e-016 0.55 0.952628
      vertex 1.22125e-016 1.1 -2.22045e-016
    endloop
  endfacet
  facet normal -1 1.11022e-016 -1.92296e-016
    outer loop
      vertex 1.22125e-016 -0.55 -0.952628
      vertex -1.22125e-016 0.55 0.952628
      vertex 2.44249e-016 0.55 -0.952628
    endloop
  endfacet
  facet normal -1 1.11022e-016 -1.92296e-016
    outer loop
      vertex 1.22125e-016 -0.55 -0.952628
      vertex -2.44249e-016 -0.55 0.952628
      vertex -1.22125e-016 0.55 0.952628
    endloop
  endfacet
  facet normal -1 1.11022e-016 -1.92296e-016
    outer loop
      vertex -2.44249e-016 -0.55 0.952628
      vertex 1.22125e-016 -0.55 -0.952628
      vertex -1.22125e-016 -1.1 6.10623e-016
    endloop
  endfacet
  facet normal 1 0 0
    outer loop
      vertex 35 0.55 0.952628
      vertex 35 0.55 -0.952628
      vertex 35 1.1 6.55032e-015
    endloop
  endfacet
  facet normal 1 -0 0
    outer loop
      vertex 35 -0.55 0.952628
      vertex 35 0.55 -0.952628
      vertex 35 0.55 0.952628
    endloop
  endfacet
  facet normal 1 0 0
    outer loop
      vertex 35 -0.55 0.952628
      vertex 35 -0.55 -0.952628
      vertex 35 0.55 -0.952628
    endloop
  endfacet
  facet normal 1 0 -0
    outer loop
      vertex 35 -0.55 -0.952628
      vertex 35 -0.55 0.952628
      vertex 35 -1.1 7.32747e-015
    endloop
  endfacet
endsolid OpenSCAD_Model
